<?xml version="1.0" standalone="no"?>
<!DOCTYPE svg PUBLIC "-//W3C//DTD SVG 20010904//EN"
 "http://www.w3.org/TR/2001/REC-SVG-20010904/DTD/svg10.dtd">
<svg version="1.0" xmlns="http://www.w3.org/2000/svg"
 width="1000.000000pt" height="1000.000000pt" viewBox="0 0 1000.000000 1000.000000"
 preserveAspectRatio="xMidYMid meet">

<g transform="translate(0.000000,1000.000000) scale(0.100000,-0.100000)"
fill="#FFFF" stroke="none">
<path d="M3690 5375 l0 -1875 215 0 215 0 0 855 c0 612 3 855 11 855 6 0 55
-9 110 -20 121 -25 278 -76 386 -125 l81 -37 -71 -88 c-173 -212 -260 -428
-274 -676 -21 -389 151 -675 472 -781 102 -34 271 -38 375 -10 190 52 343 175
425 342 60 121 78 208 79 385 1 163 -7 218 -52 350 -46 140 -119 267 -233 406
l-58 71 90 42 c105 48 278 103 398 125 46 9 87 16 92 16 5 0 9 -362 9 -855 l0
-855 220 0 220 0 0 1066 0 1066 -237 -5 c-252 -5 -340 -16 -513 -64 -175 -48
-434 -159 -561 -239 -21 -13 -43 -24 -48 -24 -5 0 -60 28 -122 63 -88 48 -108
63 -89 65 251 25 481 106 663 231 86 59 205 181 237 243 115 220 124 255 117
488 -5 177 -8 191 -66 320 -106 233 -303 404 -565 492 -139 46 -170 48 -867
48 l-659 0 0 -1875z m1359 1436 c83 -31 96 -38 164 -91 58 -45 118 -127 160
-218 17 -38 21 -67 21 -152 1 -95 -2 -110 -27 -158 -112 -219 -397 -362 -720
-362 -226 0 -386 89 -476 265 -49 96 -51 110 -51 437 l0 309 433 -3 c425 -3
433 -4 496 -27z m46 -2103 c103 -137 154 -277 162 -444 12 -236 -58 -379 -195
-400 -91 -14 -169 43 -213 153 -20 51 -23 76 -24 203 0 162 15 232 80 360 36
72 120 190 134 190 5 0 30 -28 56 -62z"/>
<path d="M6079 6187 c-68 -36 -103 -93 -107 -176 -3 -54 0 -76 16 -107 59
-114 178 -154 291 -98 120 60 157 212 77 316 -46 62 -97 88 -172 88 -45 0 -73
-6 -105 -23z"/>
<path d="M3170 2545 l0 -375 75 0 75 0 0 375 0 375 -75 0 -75 0 0 -375z"/>
<path d="M370 2531 l0 -361 75 0 75 0 0 119 0 118 143 5 c162 6 193 16 261 78
119 110 95 296 -48 373 -38 20 -57 22 -273 25 l-233 4 0 -361z m416 223 c63
-30 84 -116 42 -169 -34 -44 -75 -55 -198 -55 l-110 0 0 120 0 120 116 0 c87
0 125 -4 150 -16z"/>
<path d="M3660 2530 l0 -360 76 0 76 0 -4 218 -3 217 41 -95 c23 -52 66 -149
96 -215 l54 -120 58 0 57 0 89 197 c48 108 92 208 96 222 6 16 8 -66 6 -199
l-3 -225 75 0 76 0 0 360 0 361 -80 -3 -81 -3 -118 -257 -118 -256 -118 259
-119 259 -78 0 -78 0 0 -360z"/>
<path d="M5120 2830 l0 -61 73 3 72 3 3 58 3 57 -76 0 -75 0 0 -60z"/>
<path d="M6220 2530 l0 -362 243 4 c260 3 274 6 335 62 51 45 73 138 52 214
-14 53 -72 119 -114 130 l-31 9 31 16 c18 9 43 30 58 47 53 64 21 163 -69 209
-48 25 -56 26 -277 29 l-228 4 0 -362z m412 220 c68 -19 90 -89 43 -135 -23
-24 -29 -25 -165 -25 l-140 0 0 85 0 85 113 0 c61 0 129 -5 149 -10z m37 -281
c58 -21 69 -83 22 -130 l-29 -29 -146 0 -146 0 0 85 0 85 134 0 c73 0 147 -5
165 -11z"/>
<path d="M8370 2880 c-98 -17 -140 -49 -140 -106 0 -26 8 -43 29 -65 l29 -29
-69 0 -69 0 0 -60 0 -60 55 0 55 0 0 -195 0 -195 75 0 75 0 0 195 0 195 60 0
60 0 0 60 0 60 -59 0 c-70 0 -114 26 -95 57 13 21 44 31 107 32 l47 1 0 60 0
60 -57 -1 c-32 -1 -78 -5 -103 -9z"/>
<path d="M8560 2830 l0 -61 73 3 72 3 3 58 3 57 -76 0 -75 0 0 -60z"/>
<path d="M2206 2799 c-19 -70 -60 -119 -100 -119 -25 0 -26 -2 -26 -60 l0 -60
49 0 48 0 5 -134 c6 -148 20 -193 71 -230 24 -18 47 -21 143 -25 l114 -3 0 61
0 61 -74 0 c-104 0 -106 3 -106 151 l0 119 75 0 75 0 0 60 0 60 -122 1 c-68 0
-116 3 -108 6 56 21 110 94 110 148 0 24 -2 25 -68 25 l-69 0 -17 -61z"/>
<path d="M1201 2674 c-73 -19 -130 -60 -166 -118 -27 -45 -30 -58 -30 -131 0
-73 3 -86 30 -131 17 -27 49 -61 72 -76 118 -80 332 -73 436 13 60 50 82 100
82 194 0 70 -4 86 -28 127 -15 26 -43 59 -62 74 -76 58 -220 79 -334 48z m199
-122 c55 -27 83 -77 78 -140 -7 -83 -67 -132 -163 -132 -96 0 -156 49 -163
132 -3 44 0 59 20 88 30 45 81 70 143 70 28 0 66 -8 85 -18z"/>
<path d="M5491 2679 c-129 -25 -198 -110 -161 -199 24 -57 88 -82 270 -104 62
-8 117 -19 122 -24 6 -6 8 -22 4 -35 -8 -34 -57 -52 -138 -51 -72 1 -116 20
-126 56 -4 18 -10 19 -71 13 -36 -4 -70 -11 -74 -15 -14 -13 19 -76 51 -99 59
-41 111 -54 227 -55 69 -1 125 4 150 13 157 53 183 210 45 265 -22 9 -97 23
-167 31 -132 17 -153 24 -153 56 0 35 47 54 131 53 82 0 129 -19 129 -51 0
-13 8 -15 46 -9 26 3 55 6 65 6 13 0 19 7 19 23 0 94 -194 161 -369 126z"/>
<path d="M7091 2674 c-73 -19 -130 -60 -166 -118 -27 -45 -30 -58 -30 -131 0
-73 3 -86 30 -131 17 -27 49 -61 72 -76 118 -80 332 -73 436 13 60 50 82 100
82 194 0 70 -4 86 -28 127 -15 26 -43 59 -62 74 -76 58 -220 79 -334 48z m199
-122 c55 -27 83 -77 78 -140 -7 -83 -67 -132 -163 -132 -96 0 -156 49 -163
132 -3 44 0 59 20 88 30 45 81 70 143 70 28 0 66 -8 85 -18z"/>
<path d="M7825 2670 c-52 -25 -67 -37 -99 -84 l-26 -39 0 67 0 66 -75 0 -75 0
0 -255 0 -255 75 0 75 0 0 128 c0 144 11 179 70 220 40 26 105 29 139 6 41
-29 51 -72 51 -219 l0 -135 76 0 77 0 -6 163 c-8 229 -33 298 -121 338 -53 24
-111 24 -161 -1z"/>
<path d="M9011 2679 c-45 -18 -79 -49 -100 -91 l-21 -43 0 68 0 67 -75 0 -75
0 0 -255 0 -255 75 0 75 0 0 128 c0 103 4 135 19 169 28 61 92 89 143 62 37
-20 48 -69 48 -219 l0 -140 75 0 75 0 0 123 c0 144 10 187 51 221 33 28 64 32
103 15 45 -21 56 -63 56 -218 l0 -141 76 0 76 0 -3 188 c-4 177 -5 190 -29
237 -44 86 -145 119 -231 75 -42 -22 -98 -98 -100 -134 0 -12 -6 -2 -13 21 -8
22 -23 55 -35 71 -36 51 -129 76 -190 51z"/>
<path d="M1733 2664 c-57 -28 -63 -58 -63 -288 l0 -206 75 0 75 0 0 183 c0
129 4 187 12 195 8 8 48 12 115 12 l103 0 0 60 0 60 -142 0 c-109 0 -151 -4
-175 -16z"/>
<path d="M2695 2664 c-81 -26 -135 -75 -150 -136 -7 -27 -7 -27 57 -30 60 -3
64 -2 83 27 23 33 48 43 123 44 69 1 119 -20 128 -54 4 -15 2 -31 -4 -37 -6
-6 -68 -14 -139 -18 -150 -8 -210 -28 -243 -82 -59 -98 21 -204 163 -215 84
-7 143 11 189 56 l37 38 11 -27 c17 -40 59 -60 129 -60 l61 0 0 54 c0 49 -2
55 -22 58 -22 3 -23 8 -28 133 -3 72 -10 139 -17 150 -19 34 -66 73 -108 91
-57 24 -206 28 -270 8z m245 -302 c0 -54 -53 -95 -136 -107 -87 -11 -154 49
-107 96 16 17 41 23 114 30 52 5 99 11 104 13 22 9 25 5 25 -32z"/>
<path d="M4645 2664 c-81 -26 -135 -75 -150 -136 -7 -27 -7 -27 57 -30 60 -3
64 -2 83 27 23 33 48 43 123 44 69 1 119 -20 128 -54 4 -15 2 -31 -4 -37 -6
-6 -68 -14 -139 -18 -150 -8 -210 -28 -243 -82 -59 -98 21 -204 163 -215 84
-7 143 11 189 56 l37 38 11 -27 c17 -40 59 -60 129 -60 l61 0 0 54 c0 49 -2
55 -22 58 -22 3 -23 8 -28 133 -3 72 -10 139 -17 150 -19 34 -66 73 -108 91
-57 24 -206 28 -270 8z m245 -302 c0 -54 -53 -95 -136 -107 -87 -11 -154 49
-107 96 16 17 41 23 114 30 52 5 99 11 104 13 22 9 25 5 25 -32z"/>
<path d="M5120 2425 l0 -255 70 0 70 0 0 255 0 255 -70 0 -70 0 0 -255z"/>
<path d="M8560 2425 l0 -255 70 0 70 0 0 255 0 255 -70 0 -70 0 0 -255z"/>
<path d="M9680 2270 c-39 -39 -11 -110 43 -110 32 0 57 30 57 67 0 56 -60 83
-100 43z"/>
</g>
</svg>
