<?xml version="1.0" standalone="no"?>
<!DOCTYPE svg PUBLIC "-//W3C//DTD SVG 20010904//EN"
 "http://www.w3.org/TR/2001/REC-SVG-20010904/DTD/svg10.dtd">
<svg version="1.0" xmlns="http://www.w3.org/2000/svg"
 width="1000.000000pt" height="1000.000000pt" viewBox="0 0 1000.000000 1000.000000"
 preserveAspectRatio="xMidYMid meet">

<g transform="translate(0.000000,1000.000000) scale(0.100000,-0.100000)"
fill="#000000" stroke="none">
<path d="M2200 4855 l0 -3745 425 0 425 0 0 1705 c0 938 3 1705 6 1705 66 0
442 -85 606 -136 108 -34 359 -133 472 -187 l90 -43 -73 -79 c-326 -356 -538
-786 -608 -1230 -25 -155 -24 -490 1 -639 39 -237 122 -454 238 -624 71 -104
224 -255 329 -325 151 -100 339 -177 526 -214 122 -24 367 -24 488 0 737 148
1155 730 1122 1562 -13 329 -94 630 -248 925 -102 194 -256 412 -402 569 l-51
54 60 30 c180 91 475 200 699 257 98 25 377 80 407 80 5 0 8 -767 8 -1705 l0
-1705 440 0 440 0 0 2126 0 2126 -417 -5 c-432 -5 -504 -11 -758 -58 -454 -85
-985 -286 -1410 -534 -71 -42 -136 -73 -144 -70 -8 3 -52 28 -98 56 -47 28
-147 84 -223 123 l-138 72 157 21 c619 86 1123 314 1469 664 212 215 346 448
422 735 82 308 63 720 -46 1027 -214 597 -752 1040 -1419 1167 -60 11 -129 25
-153 30 -26 6 -534 10 -1342 10 l-1300 0 0 -3745z m2619 2896 c206 -57 343
-135 486 -276 147 -145 235 -298 282 -493 24 -100 21 -275 -6 -387 -37 -152
-82 -233 -200 -358 -171 -182 -422 -328 -696 -406 -281 -80 -666 -102 -897
-50 -370 82 -627 329 -728 699 -19 71 -20 103 -20 681 0 333 3 609 7 613 4 4
385 5 848 4 l840 -3 84 -24z m175 -4226 c117 -148 209 -315 264 -481 136 -407
92 -889 -98 -1084 -155 -159 -411 -157 -558 5 -191 211 -225 712 -76 1125 65
181 195 394 328 538 l30 32 23 -27 c13 -16 52 -64 87 -108z"/>
<path d="M7090 6499 c-217 -42 -379 -274 -342 -489 68 -381 542 -501 774 -195
193 254 46 625 -271 685 -62 12 -98 11 -161 -1z"/>
</g>
</svg>
